<svg width="20" height="20" viewBox="0 0 20 20" fill="none" xmlns="http://www.w3.org/2000/svg">
<path d="M8.74935 15.0001H2.16602C1.88987 15.0001 1.66602 14.7762 1.66602 14.5001V12.9167M8.74935 15.0001L11.2493 15.0001M8.74935 15.0001V18.3334M11.2493 15.0001L17.8327 15.0001C18.1088 15.0001 18.3327 14.7762 18.3327 14.5001V12.9167M11.2493 15.0001L11.2493 18.3334M1.66602 12.9167V2.16675C1.66602 1.89061 1.88987 1.66675 2.16602 1.66675H17.8327C18.1088 1.66675 18.3327 1.89061 18.3327 2.16675V12.9167M1.66602 12.9167H18.3327M7.49935 18.3334H8.74935M8.74935 18.3334H11.2493M11.2493 18.3334H12.4993" stroke="#141C25" stroke-width="1.5" stroke-linecap="round" stroke-linejoin="round"/>
</svg>
