<svg width="20" height="20" viewBox="0 0 20 20" fill="none" xmlns="http://www.w3.org/2000/svg">
<g clip-path="url(#clip0_368_10)">
<path d="M10.0003 19.0833C10.4145 19.0833 10.7503 18.7475 10.7503 18.3333C10.7503 17.9191 10.4145 17.5833 10.0003 17.5833V19.0833ZM17.5837 9.99996C17.5837 10.4142 17.9194 10.75 18.3337 10.75C18.7479 10.75 19.0837 10.4142 19.0837 9.99996H17.5837ZM11.431 1.25415C11.1805 0.924267 10.71 0.859918 10.3801 1.11042C10.0502 1.36092 9.98585 1.83142 10.2364 2.1613L11.431 1.25415ZM8.56969 18.7457C8.82019 19.0756 9.29068 19.1399 9.62056 18.8894C9.95045 18.6389 10.0148 18.1684 9.76429 17.8385L8.56969 18.7457ZM9.76429 2.1613C10.0148 1.83142 9.95045 1.36092 9.62057 1.11042C9.29069 0.859918 8.82019 0.924267 8.56969 1.25415L9.76429 2.1613ZM2.19169 12.1666C1.77748 12.1666 1.44169 12.5024 1.44169 12.9166C1.44169 13.3308 1.77748 13.6666 2.19169 13.6666V12.1666ZM10.0004 13.6666C10.4146 13.6666 10.7504 13.3308 10.7504 12.9166C10.7504 12.5024 10.4146 12.1666 10.0004 12.1666V13.6666ZM2.19169 6.33329C1.77748 6.33329 1.44169 6.66908 1.44169 7.08329C1.44169 7.49751 1.77748 7.83329 2.19169 7.83329V6.33329ZM17.809 7.83329C18.2232 7.83329 18.559 7.49751 18.559 7.08329C18.559 6.66908 18.2232 6.33329 17.809 6.33329V7.83329ZM18.1951 15.8483L18.2796 16.5936L18.2796 16.5936L18.1951 15.8483ZM18.2327 14.9311L17.8397 15.5699L17.8397 15.5699L18.2327 14.9311ZM16.0563 16.0908L15.9718 15.3456L15.5666 15.3915L15.3849 15.7565L16.0563 16.0908ZM15.0969 18.0177L14.4255 17.6834L14.4255 17.6834L15.0969 18.0177ZM14.2221 17.7394L14.9568 17.5886L14.9568 17.5886L14.2221 17.7394ZM13.176 12.6427L13.9107 12.4919L13.9107 12.4919L13.176 12.6427ZM13.8012 12.2049L13.4082 12.8437L13.4082 12.8437L13.8012 12.2049ZM10.0003 17.5833C5.81217 17.5833 2.41699 14.1881 2.41699 9.99996H0.916992C0.916992 15.0165 4.98374 19.0833 10.0003 19.0833V17.5833ZM10.0003 2.41663C14.1885 2.41663 17.5837 5.8118 17.5837 9.99996H19.0837C19.0837 4.98337 15.0169 0.916626 10.0003 0.916626V2.41663ZM2.41699 9.99996C2.41699 5.8118 5.81217 2.41663 10.0003 2.41663V0.916626C4.98374 0.916626 0.916992 4.98337 0.916992 9.99996H2.41699ZM10.8337 1.70772C10.2364 2.1613 10.2362 2.1611 10.2361 2.16091C10.236 2.16086 10.2359 2.16069 10.2358 2.16059C10.2357 2.16041 10.2356 2.16027 10.2355 2.16018C10.2354 2.16001 10.2354 2.16003 10.2356 2.16025C10.2359 2.16069 10.2368 2.16192 10.2383 2.16393C10.2413 2.16794 10.2465 2.17506 10.2539 2.18526C10.2686 2.20565 10.2918 2.2383 10.3223 2.28282C10.3834 2.37188 10.4734 2.50829 10.5829 2.68894C10.802 3.05051 11.098 3.58773 11.3951 4.27603C11.9898 5.65393 12.5837 7.62512 12.5837 9.99991H14.0837C14.0837 7.3747 13.4275 5.1998 12.7723 3.68161C12.4443 2.92186 12.1154 2.32353 11.8657 1.91156C11.7408 1.70545 11.6355 1.54559 11.5598 1.43508C11.522 1.37981 11.4915 1.33685 11.4696 1.30657C11.4586 1.29144 11.4498 1.27947 11.4434 1.27071C11.4401 1.26634 11.4374 1.26276 11.4354 1.26C11.4343 1.25862 11.4335 1.25744 11.4327 1.25647C11.4323 1.25598 11.432 1.25554 11.4317 1.25515C11.4316 1.25496 11.4314 1.25471 11.4313 1.25461C11.4311 1.25437 11.431 1.25415 10.8337 1.70772ZM9.16699 18.2921C9.76429 17.8385 9.76444 17.8387 9.76459 17.8389C9.76462 17.839 9.76476 17.8391 9.76483 17.8392C9.76497 17.8394 9.76507 17.8395 9.76514 17.8396C9.76527 17.8398 9.76525 17.8398 9.76508 17.8396C9.76475 17.8391 9.76384 17.8379 9.76235 17.8359C9.75938 17.8319 9.75413 17.8248 9.74676 17.8146C9.73202 17.7942 9.7088 17.7615 9.6783 17.717C9.61729 17.6279 9.52726 17.4915 9.41779 17.3109C9.19868 16.9493 8.90267 16.4121 8.60559 15.7238C8.01087 14.3459 7.41699 12.3747 7.41699 9.99991H5.91699C5.91699 12.6251 6.57312 14.8 7.22839 16.3182C7.55631 17.078 7.8853 17.6763 8.13494 18.0883C8.25984 18.2944 8.36513 18.4542 8.44083 18.5647C8.47869 18.62 8.50918 18.663 8.53107 18.6932C8.54201 18.7084 8.5508 18.7204 8.55729 18.7291C8.56053 18.7335 8.5632 18.7371 8.56527 18.7398C8.56631 18.7412 8.5672 18.7424 8.56793 18.7434C8.5683 18.7438 8.56863 18.7443 8.56892 18.7447C8.56907 18.7449 8.56926 18.7451 8.56933 18.7452C8.56952 18.7454 8.56969 18.7457 9.16699 18.2921ZM7.41699 9.99991C7.41699 7.62512 8.01087 5.65393 8.60559 4.27603C8.90267 3.58773 9.19868 3.05051 9.41779 2.68894C9.52726 2.50829 9.61729 2.37188 9.67831 2.28282C9.7088 2.2383 9.73202 2.20565 9.74676 2.18526C9.75413 2.17506 9.75938 2.16794 9.76235 2.16393C9.76384 2.16192 9.76475 2.16069 9.76509 2.16025C9.76525 2.16003 9.76527 2.16001 9.76514 2.16018C9.76507 2.16027 9.76497 2.16041 9.76483 2.16059C9.76476 2.16069 9.76462 2.16086 9.76459 2.16091C9.76445 2.1611 9.76429 2.1613 9.16699 1.70772C8.56969 1.25415 8.56952 1.25437 8.56934 1.25461C8.56926 1.25471 8.56907 1.25496 8.56893 1.25515C8.56863 1.25554 8.5683 1.25598 8.56794 1.25647C8.5672 1.25744 8.56631 1.25862 8.56527 1.26C8.5632 1.26276 8.56053 1.26634 8.55729 1.27071C8.5508 1.27947 8.54201 1.29144 8.53107 1.30657C8.50919 1.33685 8.4787 1.37981 8.44083 1.43508C8.36513 1.54559 8.25985 1.70545 8.13495 1.91156C7.8853 2.32353 7.55631 2.92186 7.22839 3.68161C6.57312 5.1998 5.91699 7.3747 5.91699 9.99991H7.41699ZM2.19169 13.6666H10.0004V12.1666H2.19169V13.6666ZM2.19169 7.83329H17.809V6.33329H2.19169V7.83329ZM18.2796 16.5936C18.9442 16.5182 19.2573 15.9657 19.2765 15.4974C19.295 15.0463 19.0726 14.5672 18.6257 14.2923L17.8397 15.5699C17.8043 15.5481 17.775 15.5036 17.7778 15.4359C17.7793 15.3988 17.7924 15.3253 17.8552 15.2479C17.9263 15.1602 18.0257 15.1127 18.1106 15.1031L18.2796 16.5936ZM16.1407 16.836L18.2796 16.5936L18.1106 15.1031L15.9718 15.3456L16.1407 16.836ZM15.7683 18.352L16.7276 16.4251L15.3849 15.7565L14.4255 17.6834L15.7683 18.352ZM13.4874 17.8901C13.5929 18.4041 13.967 18.777 14.3972 18.9139C14.8439 19.056 15.4702 18.9508 15.7683 18.352L14.4255 17.6834C14.4636 17.6069 14.5422 17.5298 14.6489 17.4929C14.7431 17.4604 14.8167 17.4733 14.852 17.4845C14.9166 17.5051 14.9484 17.5479 14.9568 17.5886L13.4874 17.8901ZM12.4413 12.7935L13.4874 17.8901L14.9568 17.5886L13.9107 12.4919L12.4413 12.7935ZM14.1942 11.5661C13.7996 11.3234 13.2964 11.2997 12.8972 11.5792C12.498 11.8588 12.3482 12.3397 12.4413 12.7935L13.9107 12.4919C13.9217 12.5457 13.9107 12.7008 13.7576 12.808C13.6045 12.9151 13.455 12.8725 13.4082 12.8437L14.1942 11.5661ZM18.6257 14.2923L14.1942 11.5661L13.4082 12.8437L17.8397 15.5699L18.6257 14.2923Z" fill="#071420"/>
</g>
<defs>
<clipPath id="clip0_368_10">
<rect width="20" height="20" fill="white"/>
</clipPath>
</defs>
</svg>
